<svg width="52" height="51" viewBox="0 0 52 51" fill="none" xmlns="http://www.w3.org/2000/svg">
<path d="M29.2393 8.75391L28.4971 9.60742C27.5322 8.88997 26.5798 8.53125 25.6396 8.53125C25.0212 8.53125 24.4893 8.67969 24.0439 8.97656C23.5986 9.27344 23.2585 9.63216 23.0234 10.0527C22.8008 10.4733 22.6214 11.0052 22.4854 11.6484C22.3617 12.2917 22.2812 12.8483 22.2441 13.3184C22.2194 13.7884 22.207 14.3389 22.207 14.9697C22.207 15.5882 22.3184 16.2933 22.541 17.085C22.776 17.8643 23.1657 18.5941 23.71 19.2744C24.2542 19.9548 24.8851 20.2949 25.6025 20.2949C26.3818 20.2949 27.5755 19.8867 29.1836 19.0703C29.3444 19.3053 29.5547 19.695 29.8145 20.2393C28.2559 21.3154 26.8643 21.8535 25.6396 21.8535C24.848 21.8535 24.1243 21.6123 23.4688 21.1299C22.8132 20.6475 22.2936 20.0352 21.9102 19.293C21.5391 18.5508 21.2484 17.7777 21.0381 16.9736C20.8402 16.1572 20.7412 15.3841 20.7412 14.6543C20.7412 13.8503 20.8031 13.071 20.9268 12.3164C21.0505 11.5495 21.2607 10.7826 21.5576 10.0156C21.8545 9.2487 22.2998 8.63021 22.8936 8.16016C23.4997 7.6901 24.2171 7.45508 25.0459 7.45508C25.7633 7.45508 26.5055 7.57878 27.2725 7.82617C28.0394 8.07357 28.695 8.38281 29.2393 8.75391Z" fill="#15A374"/>
<line x1="16" y1="26" x2="36" y2="26" stroke="white" stroke-width="2"/>
<path d="M32 42L30.5898 42.1299C29.9095 37.8623 29.1735 34.207 28.3818 31.1641C27.9736 32.1289 27.5221 33.4896 27.0273 35.2461C26.5449 36.9902 26.2109 38.1221 26.0254 38.6416C26.0007 38.6416 25.9574 38.6478 25.8955 38.6602C25.846 38.6602 25.8027 38.6602 25.7656 38.6602C25.5924 38.6602 25.3079 38.6416 24.9121 38.6045C24.5163 38.5674 24.2627 38.5488 24.1514 38.5488C24.139 38.1901 23.8236 36.9964 23.2051 34.9678C22.5866 32.9268 22.2155 31.6217 22.0918 31.0527C21.8691 33.0566 21.0033 36.7057 19.4941 42L18.3438 41.8887C18.5169 40.5404 18.9437 38.4189 19.624 35.5244C20.3044 32.6299 20.7064 30.391 20.8301 28.8076C21.0527 28.7829 21.2321 28.7705 21.3682 28.7705C21.4919 28.7705 21.9495 28.82 22.7412 28.9189C22.9144 28.9437 23.1618 29.5065 23.4834 30.6074C23.8174 31.696 24.1514 32.8958 24.4854 34.207C24.8193 35.5182 25.0296 36.2913 25.1162 36.5264C25.4626 35.6729 25.877 34.2874 26.3594 32.3701C26.8542 30.4528 27.2005 29.2344 27.3984 28.7148C27.5964 28.7272 28.221 28.7829 29.2725 28.8818C29.5941 30.1312 29.9033 31.4795 30.2002 32.9268C30.5094 34.374 30.8372 36.0192 31.1836 37.8623C31.5423 39.7054 31.8145 41.0846 32 42Z" fill="#15A374"/>
<path d="M26 49.25C39.3669 49.25 50.25 38.6425 50.25 25.5C50.25 12.3575 39.3669 1.75 26 1.75C12.6331 1.75 1.75 12.3575 1.75 25.5C1.75 38.6425 12.6331 49.25 26 49.25Z" stroke="white" stroke-width="2.5"/>
</svg>
